<?xml version="1.0" encoding="utf-8"?>
<!-- Generator: Adobe Illustrator 15.0.2, SVG Export Plug-In . SVG Version: 6.00 Build 0)  -->
<!DOCTYPE svg PUBLIC "-//W3C//DTD SVG 1.1//EN" "http://www.w3.org/Graphics/SVG/1.1/DTD/svg11.dtd">
<svg version="1.1"
	 id="svg5987" inkscape:version="0.48.0 r9654" sodipodi:docname="                            15" xmlns:dc="http://purl.org/dc/elements/1.1/" xmlns:cc="http://creativecommons.org/ns#" xmlns:rdf="http://www.w3.org/1999/02/22-rdf-syntax-ns#" xmlns:svg="http://www.w3.org/2000/svg" xmlns:sodipodi="http://sodipodi.sourceforge.net/DTD/sodipodi-0.dtd" xmlns:inkscape="http://www.inkscape.org/namespaces/inkscape"
	 xmlns="http://www.w3.org/2000/svg" xmlns:xlink="http://www.w3.org/1999/xlink" x="0px" y="0px" width="288.554px"
	 height="204.93px" viewBox="15.417 49.805 288.554 204.93" enable-background="new 15.417 49.805 288.554 204.93"
	 xml:space="preserve">
<sodipodi:namedview  id="base" inkscape:window-y="-4" inkscape:window-x="-4" inkscape:window-height="904" inkscape:window-width="1280" fit-margin-bottom="0" fit-margin-right="0" inkscape:current-layer="layer1" inkscape:document-units="px" inkscape:pageshadow="2" inkscape:pageopacity="0.0" inkscape:window-maximized="1" inkscape:cy="164.1039" inkscape:cx="210.5684" inkscape:zoom="1.4" fit-margin-left="0" borderopacity="1.0" fit-margin-top="0" bordercolor="#666666" showgrid="false" pagecolor="#ffffff">
	</sodipodi:namedview>
<g id="layer1" transform="translate(66.043816,-389.1875)" inkscape:label="Layer 1" inkscape:groupmode="layer">
	<g id="g7307">
		
			<path id="_x34_" sodipodi:nodetypes="ccccccssc" inkscape:connector-curvature="0" fill="none" stroke="#000000" stroke-width="3.748" stroke-linecap="round" stroke-linejoin="round" d="
			M127.232,642.048L-20.26,609.626c-32.06-5.57-37.258-60.95-14.618-75.282c6.363-3.612,14.217-2.521,24.975-0.313l139.482,30.62
			l100.166-98.337l-128.303-24.407c-22.713-4.32-33.658,5.461-51.989,17.497c-31.837,20.905-66.792,55.336-85.661,75.544"/>
		
			<path id="_x35_" sodipodi:nodetypes="ccssccc" inkscape:connector-curvature="0" fill="none" stroke="#000000" stroke-width="3.748" stroke-linecap="round" stroke-linejoin="round" d="
			M128.291,642.048l-2.061-13.559l-138.224-27.291c-40.609-8.019-35.727-66.717,0.235-58.729l143.885,31.96l97.619-93.432v-13.615"
			/>
		
			<path id="_x36_" sodipodi:nodetypes="cccc" inkscape:connector-curvature="0" fill="none" stroke="#000000" stroke-width="3.748" stroke-linecap="round" stroke-linejoin="round" d="
			M125.172,628.49l110.881-105.7v9.437L128.291,640.98"/>
		
			<path id="_x37_" inkscape:connector-curvature="0" fill="none" stroke="#000000" stroke-width="3.748" stroke-linecap="round" stroke-linejoin="round" d="
			M122.041,626.362c-8.62-10.308-17.241-20.614-16.735-29.292c0.497-8.687,10.177-15.873,19.866-22.995"/>
		
			<path id="_x38_" sodipodi:nodetypes="cc" inkscape:connector-curvature="0" fill="none" stroke="#000000" stroke-width="3.748" stroke-linecap="round" stroke-linejoin="round" d="
			M234.994,523.849c-9.893-7.774-21.057-18.559-14.619-33.44"/>
		
			<path id="_x39_" sodipodi:nodetypes="cc" inkscape:connector-curvature="0" fill="none" stroke="#000000" stroke-width="3.748" stroke-linecap="round" stroke-linejoin="round" d="
			M122.041,620.121l103.517-95.204"/>
		
			<path id="_x31_0" sodipodi:nodetypes="cc" inkscape:connector-curvature="0" fill="none" stroke="#000000" stroke-width="3.748" stroke-linecap="round" stroke-linejoin="round" d="
			M118.855,609.683l98.873-91.99"/>
		
			<path id="_x31_1" sodipodi:nodetypes="cc" inkscape:connector-curvature="0" fill="none" stroke="#000000" stroke-width="3.748" stroke-linecap="round" stroke-linejoin="round" d="
			M113.702,599.873l100.302-91.99"/>
		
			<path id="_x31_2" sodipodi:nodetypes="csc" inkscape:connector-curvature="0" fill="none" stroke="#000000" stroke-width="3.748" stroke-linecap="round" stroke-linejoin="round" d="
			M-18.142,544.782c-6.428,3.748-12.866,7.496-15.677,14.618c-2.811,7.121-2.654,16.869,1.173,28.388"/>
		
			<path id="_x31_3" sodipodi:nodetypes="cc" inkscape:connector-curvature="0" fill="none" stroke="#000000" stroke-width="3.748" stroke-linecap="round" stroke-linejoin="round" d="
			M-18.494,550.923c54.04,10.869,105.302,20.847,126.919,25.213"/>
		
			<path id="_x31_4" sodipodi:nodetypes="cc" inkscape:connector-curvature="0" fill="none" stroke="#000000" stroke-width="3.748" stroke-linecap="round" stroke-linejoin="round" d="
			M-28.198,562.233c54.04,10.869,105.58,21.025,127.188,25.401"/>
		
			<path id="_x31_5" sodipodi:nodetypes="cc" inkscape:connector-curvature="0" fill="none" stroke="#000000" stroke-width="3.748" stroke-linecap="round" stroke-linejoin="round" d="
			M-28.211,574.607l127.367,26.285"/>
		
			<path id="_x31_6" inkscape:connector-curvature="0" fill="none" stroke="#000000" stroke-width="3.748" stroke-linecap="round" stroke-linejoin="round" d="
			M-23.389,587.699c54.04,10.869,108.08,21.739,129.688,26.106"/>
	</g>
</g>
</svg>
